<?xml version="1.0" encoding="UTF-8" standalone="no"?>
<!DOCTYPE svg PUBLIC "-//W3C//DTD SVG 1.1//EN" "http://www.w3.org/Graphics/SVG/1.1/DTD/svg11.dtd">
<svg width="100%" height="100%" viewBox="0 0 1010 114" version="1.1" xmlns="http://www.w3.org/2000/svg" xmlns:xlink="http://www.w3.org/1999/xlink" xml:space="preserve" xmlns:serif="http://www.serif.com/" style="fill-rule:evenodd;clip-rule:evenodd;stroke-linejoin:round;stroke-miterlimit:2;">
    <g transform="matrix(1,0,0,1,-2182,-454)">
        <g id="Artboard1" transform="matrix(0.986328,0,0,0.111328,2182,454)">
            <rect x="0" y="0" width="1024" height="1024" style="fill:none;"/>
            <g transform="matrix(0.599051,0,0,5.30738,-230.918,-2214.36)">
                <g transform="matrix(4.16667,0,0,4.16667,0,-1276.5)">
                    <path d="M339.509,418.934L338.164,418.934L338.164,437.28L339.509,437.28L339.509,418.934ZM360.79,418.934L359.445,418.934L359.445,434.284L345.655,418.934L345.196,418.934L345.196,437.28L346.542,437.28L346.542,421.87L360.331,437.28L360.79,437.28L360.79,418.934ZM382.04,418.934L380.695,418.934L380.695,434.284L366.905,418.934L366.446,418.934L366.446,437.28L367.792,437.28L367.792,421.87L381.581,437.28L382.04,437.28L382.04,418.934ZM395.677,437.708C401.364,437.708 405.064,433.55 405.064,428.168C405.064,422.695 401.364,418.537 395.677,418.537C389.99,418.537 386.32,422.695 386.32,428.168C386.32,433.55 389.99,437.708 395.677,437.708M395.677,436.424C390.632,436.424 387.666,432.602 387.666,428.168C387.666,423.643 390.632,419.821 395.677,419.821C400.752,419.821 403.688,423.643 403.688,428.168C403.688,432.602 400.752,436.424 395.677,436.424M415.368,434.65L415.154,434.65L411.454,426.517L407.754,418.934L406.256,418.934L415.062,437.28L415.429,437.28L424.235,418.934L422.767,418.934L419.098,426.517L415.368,434.65ZM423.134,437.28L424.632,437.28L426.497,433.489L437.749,433.489L439.615,437.28L441.143,437.28L432.307,418.934L431.94,418.934L423.134,437.28ZM436.924,431.807L437.107,432.204L427.109,432.204L427.323,431.807L432.001,421.686L432.215,421.686L436.924,431.807ZM440.012,420.188L446.678,420.188L446.678,437.28L448.023,437.28L448.023,420.188L454.688,420.188L454.688,418.934L440.012,418.934L440.012,420.188ZM459.397,418.934L458.052,418.934L458.052,437.28L459.397,437.28L459.397,418.934ZM473.064,437.708C478.751,437.708 482.451,433.55 482.451,428.168C482.451,422.695 478.751,418.537 473.064,418.537C467.377,418.537 463.708,422.695 463.708,428.168C463.708,433.55 467.377,437.708 473.064,437.708M473.064,436.424C468.019,436.424 465.053,432.602 465.053,428.168C465.053,423.643 468.019,419.821 473.064,419.821C478.14,419.821 481.075,423.643 481.075,428.168C481.075,432.602 478.14,436.424 473.064,436.424M502.356,418.934L501.011,418.934L501.011,434.284L487.221,418.934L486.762,418.934L486.762,437.28L488.108,437.28L488.108,421.87L501.897,437.28L502.356,437.28L502.356,418.934Z" style="fill:rgb(118,119,123);fill-rule:nonzero;"/>
                </g>
                <g transform="matrix(4.16667,0,0,4.16667,631.133,461.554)">
                    <path d="M0,20.146L3.324,20.146L3.324,13.934L8.562,13.934C13.531,13.934 16.889,11.45 16.889,6.816C16.889,2.451 13.8,0 8.763,0L0,0L0,20.146ZM13.498,6.951C13.498,9.805 11.617,11.013 8.629,11.013L3.324,11.013L3.324,2.955L8.629,2.955C11.584,2.955 13.498,4.298 13.498,6.951M32.407,9.781L23.173,9.781L23.173,4.491L34.059,4.491L34.059,1.8L20.146,1.8L20.146,20.146L34.059,20.146L34.059,17.455L23.173,17.455L23.173,12.349L32.407,12.349L32.407,9.781ZM37.575,20.146L40.602,20.146L40.602,14.489L45.371,14.489C49.897,14.489 52.954,12.227 52.954,8.007C52.954,4.032 50.141,1.8 45.555,1.8L37.575,1.8L37.575,20.146ZM49.866,8.13C49.866,10.729 48.154,11.829 45.433,11.829L40.602,11.829L40.602,4.491L45.433,4.491C48.123,4.491 49.866,5.714 49.866,8.13M56.134,20.146L59.161,20.146L59.161,14.489L63.931,14.489C68.456,14.489 71.514,12.227 71.514,8.007C71.514,4.032 68.701,1.8 64.114,1.8L56.134,1.8L56.134,20.146ZM68.426,8.13C68.426,10.729 66.713,11.829 63.992,11.829L59.161,11.829L59.161,4.491L63.992,4.491C66.683,4.491 68.426,5.714 68.426,8.13M86.954,9.781L77.72,9.781L77.72,4.491L88.606,4.491L88.606,1.8L74.693,1.8L74.693,20.146L88.606,20.146L88.606,17.455L77.72,17.455L77.72,12.349L86.954,12.349L86.954,9.781ZM92.122,20.146L95.149,20.146L95.149,14.337L100.377,14.337L104.872,20.146L108.235,20.146L108.235,19.718L103.679,13.878L103.679,13.694C106.003,12.777 107.501,10.881 107.501,8.007C107.501,4.032 104.688,1.8 100.071,1.8L92.122,1.8L92.122,20.146ZM104.383,8.13C104.383,10.576 102.701,11.707 100.163,11.707L95.149,11.707L95.149,4.491L99.98,4.491C102.67,4.491 104.383,5.714 104.383,8.13M128.17,20.146L131.197,20.146L131.197,1.8L130.402,1.8L121.994,10.362L113.647,1.8L112.79,1.8L112.79,20.146L115.818,20.146L115.818,8.191L121.658,14.245L122.361,14.245L128.17,8.191L128.17,20.146ZM139.605,1.8L136.578,1.8L136.578,20.146L139.605,20.146L139.605,1.8ZM161.528,1.8L158.501,1.8L158.501,13.908L145.812,1.8L145.017,1.8L145.017,20.146L148.044,20.146L148.044,7.854L160.733,20.146L161.528,20.146L161.528,1.8ZM164.341,4.491L170.518,4.491L170.518,20.146L173.545,20.146L173.545,4.491L179.721,4.491L179.721,1.8L164.341,1.8L164.341,4.491Z" style="fill:rgb(0,148,131);fill-rule:nonzero;"/>
                </g>
                <g transform="matrix(4.16667,0,0,4.16667,594.265,514.305)">
                    <path d="M0,-1.263C2.22,-1.237 4.519,-1.249 6.781,-1.249C7.531,-1.249 8.282,-1.282 9.004,-1.207C9.059,-0.526 9.032,0.326 9.018,1.044C8.299,1.119 7.556,1.086 6.809,1.086L0.014,1.086C-0.328,9.089 -3.728,14.113 -8.836,17.402C-12.622,19.84 -17.574,21.286 -23.461,21.653C-25.361,21.771 -27.484,21.779 -29.431,21.555C-28.948,19.694 -28.299,17.998 -27.544,16.41C-29.117,16.906 -31.05,17.186 -33.066,17.095C-35.041,17.005 -36.771,16.567 -38.239,16.004C-37.032,14.219 -35.769,12.491 -34.562,10.705C-41.672,9.197 -46.669,5.577 -49.704,-0.005C-46.543,-5.833 -41.372,-9.653 -34.478,-11.749C-35.669,-13.55 -37.034,-15.374 -38.225,-17.174C-36.779,-17.764 -35.053,-18.161 -33.08,-18.264C-31.016,-18.373 -29.114,-18.082 -27.558,-17.579C-28.275,-19.169 -28.971,-20.901 -29.445,-22.781C-24.933,-23.042 -20.558,-22.42 -17.016,-21.438C-13.732,-20.529 -10.914,-19.253 -8.501,-17.551C-3.629,-14.117 -0.37,-9.048 0,-1.263M-26.928,-20.949C-26.366,-19.399 -25.733,-17.983 -24.929,-16.685C-24.13,-15.394 -23.195,-14.221 -22.412,-12.966C-24.223,-13.867 -25.878,-15.082 -27.907,-15.748C-29.91,-16.405 -32.86,-16.671 -35.219,-16.139C-35.102,-15.886 -34.919,-15.671 -34.758,-15.44C-33.612,-13.805 -32.442,-12.142 -31.347,-10.519C-35.153,-9.926 -38.248,-8.491 -40.952,-6.772C-43.657,-5.052 -45.895,-2.78 -47.551,-0.005C-45.97,2.653 -43.772,4.738 -41.106,6.301C-38.434,7.868 -35.23,8.991 -31.235,9.195C-32.518,11.053 -33.833,12.954 -35.122,14.788C-35.153,14.832 -35.236,14.883 -35.205,14.956C-32.837,15.508 -29.873,15.224 -27.907,14.564C-25.845,13.872 -24.196,12.691 -22.398,11.782C-23.209,13.061 -24.15,14.24 -24.957,15.543C-25.766,16.848 -26.39,18.288 -26.956,19.863C-23.344,19.939 -20.018,19.56 -17.071,18.828C-14.145,18.102 -11.511,17.018 -9.368,15.543C-5.048,12.568 -2.137,8.085 -1.86,1.086C-3.943,1.104 -6.094,1.049 -8.123,1.114C-8.468,4.74 -9.768,7.296 -11.521,9.587C-12.801,11.259 -14.344,12.689 -16.121,13.879C-16.418,14.078 -16.718,14.345 -17.183,14.242C-17.547,14.163 -17.865,13.895 -17.91,13.473C-17.994,12.695 -17.395,12.506 -16.974,12.215C-15.302,11.06 -13.89,9.689 -12.695,8.049C-11.338,6.185 -10.3,4.064 -9.997,1.086L-21.573,1.086C-21.858,2.929 -22.575,4.253 -23.629,5.35C-24.123,5.864 -24.754,6.356 -25.432,6.706C-25.629,6.808 -25.815,6.887 -26.048,6.874C-26.658,6.84 -27.18,6.129 -26.803,5.476C-26.693,5.287 -26.5,5.161 -26.271,5.043C-26.057,4.932 -25.853,4.79 -25.684,4.665C-24.542,3.82 -23.787,2.742 -23.475,1.086L-32.898,1.086C-33.421,1.086 -33.926,1.097 -34.339,0.96C-34.724,0.832 -35.087,0.608 -35.247,0.289C-35.339,0.106 -35.345,-0.237 -35.247,-0.438C-35.083,-0.775 -34.742,-0.977 -34.353,-1.109C-33.937,-1.25 -33.459,-1.249 -32.912,-1.249L-23.475,-1.249C-23.856,-3.194 -24.854,-4.565 -26.215,-5.499C-26.431,-5.647 -26.656,-5.757 -26.775,-5.947C-27.071,-6.42 -26.831,-7.03 -26.481,-7.247C-25.769,-7.688 -24.99,-6.924 -24.607,-6.604C-23.58,-5.744 -22.754,-4.721 -22.189,-3.43C-21.902,-2.776 -21.719,-2.053 -21.559,-1.263C-17.733,-1.23 -13.846,-1.258 -9.997,-1.249C-10.301,-4.176 -11.312,-6.301 -12.653,-8.114C-13.837,-9.714 -15.243,-11.095 -16.89,-12.211C-17.266,-12.466 -17.838,-12.693 -17.91,-13.217C-18.011,-13.944 -17.378,-14.525 -16.652,-14.252C-16.388,-14.153 -16.091,-13.939 -15.813,-13.749C-13.939,-12.467 -12.334,-10.874 -11.059,-9.079C-9.513,-6.9 -8.425,-4.551 -8.123,-1.249L-1.874,-1.249C-2.196,-8.286 -5.159,-12.934 -9.507,-16C-13.886,-19.086 -19.754,-20.742 -26.928,-20.991C-26.95,-20.987 -26.938,-20.96 -26.928,-20.949" style="fill:rgb(0,148,131);fill-rule:nonzero;"/>
                </g>
            </g>
        </g>
    </g>
</svg>
